<svg id="Layer_1" data-name="Layer 1" xmlns="http://www.w3.org/2000/svg" viewBox="0 0 1080 1080"><defs><style>.cls-1{fill:#fee3d6;}.cls-2{fill:#9ba1ab;}.cls-3{fill:#fff;}.cls-4{fill:#1d1819;}</style></defs><path class="cls-1" d="M631.76,314.48c-1-31.19,6.71-42.82,14.26-47.57,7.28-4.58,15.48-3.33,21.35-11.38,3.52-4.82,7-13.94,2.48-21.45-4.11-6.83-12.26-8-13.61-8.22,2.58-5.35,9.88-22.17,3.07-37.81-10.37-23.8-46.39-28.7-70.66-21.45-3.2,1-34.64,10.88-42.91,39.84-7.3,25.57,7,53.61,24.52,66.41,10.44,7.63,21.15,9.22,21.46,15.33.35,6.95-13.09,13.32-24.4,17.58a34.27,34.27,0,0,0,27.11,28.39C609.55,337,625.12,329,631.76,314.48Z"/><path class="cls-2" d="M573.33,303.5a165,165,0,0,0-41.06,11.73c-10.78,4.68-19,8.36-27.43,16.48A69.48,69.48,0,0,0,487.37,360l40,9.55q4.32,28.66,8.63,57.32c3.06,2,6.15,4.12,9.26,6.33a306.84,306.84,0,0,1,31.26,25.49,45.48,45.48,0,0,1-10.71,20.86c-15.53,16.9-38.69,14.81-41.7,14.49l-33-3L612.59,595.6l25.1,5.21c-1.05-13.34-6.05-91.57,47.85-137.17a122.58,122.58,0,0,1,32.88-19.84q-2.05-34.91-4.1-69.8a134.29,134.29,0,0,0-82.76-61.3,29.68,29.68,0,0,1-58.23-9.2Z"/><path class="cls-3" d="M422.84,479.23C421,417,419.6,372.06,419.31,368.58c-.05-.51-.29-2.56.95-3.72a4.63,4.63,0,0,1,2.85-.92,382.29,382.29,0,0,1,101,4.23,4.08,4.08,0,0,1,4.24,4.64,7.17,7.17,0,0,0,.27,1.53,12.56,12.56,0,0,0,1.43,3.15c.84,1.26,2,16.65,3.46,60.86l.39,59.27A503.42,503.42,0,0,0,462,482.81C448.26,481,435.19,479.88,422.84,479.23Z"/><path class="cls-4" d="M425.34,479.23q-1.2-40.35-2.46-80.71c-.24-7.57-.48-15.15-.76-22.73-.07-1.91-.14-3.83-.23-5.74,0-.46,0-.92-.08-1.38a4,4,0,0,1,.05-1.78c.51-.78,2.74-.59,3.68-.67A380.32,380.32,0,0,1,521,370.16c.92.16,1.85.3,2.76.48a4.34,4.34,0,0,1,1.54.42c.39.29.42.92.48,1.36a15.41,15.41,0,0,0,.53,3,10.42,10.42,0,0,0,1.54,3.31c.28.32-.19-.8-.11-.28s.18.8.25,1.2l.06.41c.09.53.16,0,0-.2.16.15.12,1,.15,1.18.65,6,.92,12,1.22,18,.63,12.42,1.09,24.85,1.52,37.27.28,8.12.16,16.27.21,24.39l.17,24.9.07,12,3.17-2.42a511,511,0,0,0-86.24-16.49q-12.72-1.31-25.48-2c-3.21-.17-3.2,4.83,0,5a501.84,501.84,0,0,1,88.72,12.68Q522.45,497,533.23,500a2.52,2.52,0,0,0,3.16-2.41l-.33-50.31c-.09-14.18-.71-28.36-1.36-42.53-.34-7.24-.65-14.5-1.31-21.73a49.77,49.77,0,0,0-.63-5.16,5.29,5.29,0,0,0-.37-1.23,11.05,11.05,0,0,0-.6-1.13,13.76,13.76,0,0,1-1.17-4.55,5.86,5.86,0,0,0-3-4.33,18,18,0,0,0-5.27-1.31q-6.12-1-12.28-1.88-12.29-1.68-24.66-2.59a384.56,384.56,0,0,0-49.43-.39q-6.08.36-12.15.89c-2,.18-4,.35-5.46,1.84a6.34,6.34,0,0,0-1.62,4.44c0,1.32.15,2.68.2,4,.26,6.26.46,12.52.66,18.79q.54,16.35,1,32.71.68,21.92,1.33,43.84l.36,12.24C420.44,482.44,425.44,482.46,425.34,479.23Z"/><path class="cls-1" d="M576.5,458.68c-1.41-10.75-15.07-17.44-25.32-22.47A78.51,78.51,0,0,0,533.23,430L536,440.74c-14.91-3.13-26.15-2.25-27.65,1.88-.67,1.81.19,5.25,1.65,7.72,1.66,2.81,3,2.52,4.13,4.5,2.84,5-4,10.31-1.7,16,1.5,3.77,4.95,2.72,7.49,7.11,3.21,5.55-.67,10,1.62,13.32,3.55,5.07,18.31,2.21,29.28-3.26C553.36,486.79,578.53,474.24,576.5,458.68Z"/><path class="cls-4" d="M489,209c-34.12-18.87-73-26-110.91-15.58-20.29,5.58-39.48,15.12-56.77,27-13.89,9.58-27.21,20.77-37.61,34.15-5.79,7.44-9.83,17.61-18.51,22.17-10.35,5.43-23.7,1.16-34.81,1.36-20.43.37-40.26,7.72-57.15,19-38.66,25.78-59.06,68.46-71.17,112-3.65,13.11-6.67,26.37-9.51,39.67-2.33,10.94-4.73,21.87-5.69,33-1.64,19.21,1,40.82,18.41,52.28l-.51-3.92c-36.47,36.36-56.34,87.73-55.62,139.09.71,50.91,23,98.91,60.33,133.35a196.59,196.59,0,0,0,63.05,39.21,178.06,178.06,0,0,0,36.36,9.7c14.13,2.2,29.44,1.85,39.63,13.46,4.59,5.23,7.92,11.44,12,17A128.31,128.31,0,0,0,272.29,896a138.35,138.35,0,0,0,29.34,22.68,161.16,161.16,0,0,0,71.59,21.09c55,3.11,107.91-22.51,147.76-59,5.19-4.75,10.18-9.72,15-14.86h-3.54c41.09,32.13,94.56,47.45,146.45,41.4,48.65-5.67,94.32-30.33,126.5-67.16a195.41,195.41,0,0,0,21.26-29.38c3.19-5.42,5.92-12.28,11.42-15.8,6.4-4.1,14.65-2.67,21.74-1.7A130.61,130.61,0,0,0,934,781.46c48.14-22.8,78.33-70.35,91-120.8,9.64-38.5,11.17-91.66-23.31-119A61.9,61.9,0,0,0,989.23,534l.5,3.92c26.78-24.33,41.29-61.13,38.76-97.2-2.46-35.08-21.61-67-50-87.33-14.61-10.44-31-16.94-48.59-20.28-10.59-2-20.12-4.74-26-14.59-3.93-6.6-4.81-13.94-6.53-21.26-4.47-19-13.46-37.06-24.05-53.39-6.51-10-13.75-20.47-23-28.25-24.11-20.41-59.27-21.13-89-17.79-3.16.36-3.19,5.36,0,5,27.25-3.05,59-3,82.25,13.79,8.24,6,14.63,14.26,20.46,22.47,10.77,15.17,20,31.88,25.72,49.62,4.73,14.57,4.77,31.46,18,41.68,6.82,5.29,15.59,6.49,23.81,8.1a111.81,111.81,0,0,1,25.24,8c31.41,14.5,56.16,43.27,64.15,77.13,9.38,39.72-4.59,83.36-34.7,110.72a2.51,2.51,0,0,0,.5,3.92c40.22,18.79,43.56,72.25,35.87,110.28-10.09,49.89-36.65,98.35-82.1,123.93-22.08,12.42-47.65,19-73,16.71-11.05-1-24-5-33.58,2.67-4.38,3.47-7,8.45-9.72,13.22q-4.3,7.6-9.27,14.81a196.77,196.77,0,0,1-116.27,79c-56.1,12.93-117.35-1.1-162.63-36.51a2.56,2.56,0,0,0-3.54,0C495.52,901.74,445.27,932,390.32,934.8,340.39,937.3,288.75,916,260.7,873.56c-6.87-10.41-13.74-19.44-26.26-23-12.32-3.5-25.48-3.54-38-6.51a187,187,0,0,1-66.15-30.7C90.25,784.28,62.1,739.87,55.63,690.56c-6.59-50.29,7.94-103.49,40-142.9a181,181,0,0,1,12.62-13.93,2.54,2.54,0,0,0-.5-3.93c-15.8-10.41-17.39-30.73-15.93-48,1.81-21.21,7.5-42.61,12.82-63.17,11.15-43.12,29.22-86.6,66.22-113.8,16.26-11.95,35.54-20.35,55.85-21.56,10.71-.63,21.53,2.16,32.17.6,9.48-1.39,15.8-7.37,21-15,4.41-6.41,8.49-12.67,13.8-18.41a170.61,170.61,0,0,1,17.56-16.33,195.36,195.36,0,0,1,52.14-30.6c18.4-7.14,38-11,57.75-10,23,1.21,45.18,8.66,65.26,19.77,2.82,1.56,5.34-2.76,2.52-4.32Z"/><path class="cls-4" d="M612.59,595.6c-10.84-20.5-33.66-56.6-76-83.68-40.43-25.82-119.63-56.84-173.18-22.22-26.19,16.93-38.15,47.3-62.06,108a612.87,612.87,0,0,0-27.59,89.66l34.48,9.19a241,241,0,0,0,41.38-34.48,245.69,245.69,0,0,0,52.87-85.05c4.32-1.78,23.83-9.28,43.68,0,1.33.62,23.4,11.23,23,25.28-.46,15.48-27.91,26.17-36.78,29.89-31.07,13-78.59,42.74-149.42,117.23L309.11,802c-2.05-6.23-6-21.22-.63-38.3,6.7-21.23,23.44-31.73,30.16-35.94,41.95-26.3,96.82,1.33,101.22,3.62.8-8.07,9.19-80.17,73.13-117.76C556,588.32,599.09,593.44,612.59,595.6Z"/><path class="cls-4" d="M449.7,358.29l0-18.3v-9.16a19,19,0,0,1,.61-6.21,7.25,7.25,0,0,1,.8-1.56c.28-.37.15-.21.62-.48-.28.16,0,0,.13,0-.39.06.34,0,.43,0a1.67,1.67,0,0,1,.71.63,6.35,6.35,0,0,1,.84,2.39,36.9,36.9,0,0,1,.17,7.07l-.07,8.91-.15,20.79c0,3.21,5,3.22,5,0l.15-20.79.08-10.14a30.69,30.69,0,0,0-.53-7.95,7.71,7.71,0,0,0-4.44-5.55,6,6,0,0,0-6.56,1.68c-3.62,4.06-2.79,10.44-2.8,15.42l0,23.25c0,3.22,5,3.22,5,0Z"/><path class="cls-4" d="M646.68,399.54l3.78,52.06a2.56,2.56,0,0,0,2.5,2.5,2.53,2.53,0,0,0,2.5-2.5l-3.78-52.06a2.57,2.57,0,0,0-2.5-2.5,2.52,2.52,0,0,0-2.5,2.5Z"/><path class="cls-4" d="M655.57,458.1a136.61,136.61,0,0,1-57.22-5.76,131.5,131.5,0,0,1-15.07-5.91,2.57,2.57,0,0,0-3.42.9,2.52,2.52,0,0,0,.9,3.42,141.46,141.46,0,0,0,58,13.21,136.87,136.87,0,0,0,16.81-.86,2.57,2.57,0,0,0,2.5-2.5,2.52,2.52,0,0,0-2.5-2.5Z"/><path class="cls-4" d="M574.88,450a55.13,55.13,0,0,1-25,37.87,2.53,2.53,0,0,0,0,4.32,150.55,150.55,0,0,0,67.9,23.19,145.79,145.79,0,0,0,20.37.4c3.2-.16,3.22-5.16,0-5a144.21,144.21,0,0,1-85.75-22.91v4.32A60.32,60.32,0,0,0,576.91,462a55.94,55.94,0,0,0,2.79-10.66,2.58,2.58,0,0,0-1.75-3.07,2.5,2.5,0,0,0-3.07,1.75Z"/><path class="cls-4" d="M573.92,451c-11.63-10.66-24.36-21.75-40.69-23.49a2.52,2.52,0,0,0-2.5,2.5,2.55,2.55,0,0,0,2.5,2.5c14.81,1.57,26.66,12.41,37.15,22,2.37,2.17,5.92-1.36,3.54-3.54Z"/><path class="cls-4" d="M536,438.24l-16.54-1.46c-3.88-.34-8.32-.36-11.46,2.3a8,8,0,0,0-2,9.17c1.21,3,3.42,5.37,5.2,8a10.71,10.71,0,0,1,1.73,3.42c0,.16.07.31.1.47.07.4,0-.37,0,0a6.68,6.68,0,0,0,0,.73,7.06,7.06,0,0,1-1,2.1,11.88,11.88,0,0,0-2.27,6.35,10.83,10.83,0,0,0,1.76,6.15c1.27,1.89,3.08,3,4.95,4.2,1.7,1.11,1.85,2.21,1.69,4.17-.21,2.41-.41,4.79.9,7a13.4,13.4,0,0,0,4.94,4.42,22.6,22.6,0,0,0,26.1-3c2.36-2.19-1.18-5.72-3.54-3.54A17.5,17.5,0,0,1,528,491.68a11.25,11.25,0,0,1-4.37-3.06c-1-1.38-.5-3.35-.38-4.92a8.3,8.3,0,0,0-1.69-6.22c-1.26-1.51-3.08-2.23-4.6-3.42a5.65,5.65,0,0,1-2.08-3.63,6,6,0,0,1,1.2-4.35,10.24,10.24,0,0,0,2-5.29,10,10,0,0,0-1-4.42c-1.14-2.54-3-4.64-4.6-6.9-.38-.55-.76-1.11-1.09-1.68-.16-.26-.3-.52-.44-.79-.28-.55-.13-.17-.28-.64-.08-.26-.16-.52-.23-.78a3.58,3.58,0,0,1-.09-.45c0,.12,0,.46,0,0,0-.12,0-.8,0-.57s.17-.62.25-.8c-.18.42.29-.49.23-.4a3.18,3.18,0,0,1,.72-.68,5.49,5.49,0,0,1,2.14-.82,18.22,18.22,0,0,1,5.32-.1c5.68.47,11.35,1,17,1.5a2.51,2.51,0,0,0,2.5-2.5,2.55,2.55,0,0,0-2.5-2.5Z"/><path class="cls-4" d="M311.27,800.74c-9-20.12-.81-43.39,13.57-58.72A66.77,66.77,0,0,1,353.48,724c13.27-4.21,27.36-4.84,41.11-3.15,15.83,2,31.26,7,45.76,13.51a2.54,2.54,0,0,0,3.76-2.16,152.09,152.09,0,0,1,6.69-35.07A146.1,146.1,0,0,1,482.85,641a137.26,137.26,0,0,1,63.32-38.64,164.14,164.14,0,0,1,58.33-5.08A156,156,0,0,1,636,602.9l1,.32a2.52,2.52,0,0,0,3.07-3.07,118.34,118.34,0,0,1-2.86-23A148,148,0,0,1,643,528.36,120.07,120.07,0,0,1,676.6,474.2,125.24,125.24,0,0,1,733,444.86a134.57,134.57,0,0,1,39.19-3.42c3.21.21,3.2-4.79,0-5-32.59-2.15-66.48,8-92.11,28.23a124.2,124.2,0,0,0-39.36,54.56,148,148,0,0,0-8.63,52.29c.09,10,.83,20.25,3.19,30l3.08-3.07a148.34,148.34,0,0,0-28.15-5.59,172.4,172.4,0,0,0-58.49,2.92,142.81,142.81,0,0,0-65.82,35.06,149.07,149.07,0,0,0-37.53,57.87,159.82,159.82,0,0,0-9.1,41.31c-.06.73-.11,1.46-.16,2.19l3.76-2.16c-26.82-12.08-57.75-19.71-86.9-12-23.57,6.26-43.38,24.13-50.79,47.59A52.78,52.78,0,0,0,307,803.27c1.32,2.93,5.63.39,4.32-2.53Z"/><path class="cls-4" d="M280.46,755A134.14,134.14,0,0,0,256,749.86a114.61,114.61,0,0,0-23.2-.52c-6.25.56-12.55,1.88-18.13,4.85s-10.26,7.85-11.68,14a13,13,0,0,0,0,6.14,14.11,14.11,0,0,0,2.83,5.09c2.63,3.34,5.36,6.62,8,9.92,5.26,6.49,10.44,13,15.8,19.46,4.42,5.28,9.23,10.43,15.14,14.07a32.91,32.91,0,0,0,22,4.39c14.39-1.93,28.2-9.52,38.36-19.77,1.24-1.25,2.42-2.55,3.56-3.88a2.57,2.57,0,0,0,0-3.54,2.53,2.53,0,0,0-3.54,0,66,66,0,0,1-33,21c-6.83,1.83-14.13,2.38-20.79-.4-5.84-2.43-10.61-6.89-14.8-11.51-4.93-5.42-9.41-11.28-14-17l-7.86-9.7-3.46-4.27a19.12,19.12,0,0,1-3.2-4.45c-1.18-2.85.09-6.12,1.61-8.57a17.62,17.62,0,0,1,5-5.15c4.57-3.14,10.07-4.65,15.51-5.42,7.64-1.09,15.61-.77,23.26,0a128,128,0,0,1,25.71,5.18c3.08,1,4.4-3.87,1.33-4.82Z"/><path class="cls-4" d="M230.33,772.28a100.76,100.76,0,0,1,29,27.44,2.56,2.56,0,0,0,3.42.89,2.52,2.52,0,0,0,.9-3.42A107.08,107.08,0,0,0,232.86,768c-2.74-1.71-5.26,2.61-2.53,4.31Z"/><path class="cls-4" d="M273,683.75A335.84,335.84,0,0,0,240,708.08c-2.59,2.17-5.17,4.36-7.68,6.63a24.29,24.29,0,0,0-5.79,7.09,10.63,10.63,0,0,0-.43,9.16c1.23,2.77,3.64,4.91,5.9,6.83,9.48,8,22.46,13.48,35,12.46a31.7,31.7,0,0,0,17.39-7c4.82-3.81,8.72-8.6,12.66-13.26,4.93-5.81,10-11.51,14.69-17.55,4.26-5.55,7.74-11.76,8.17-18.89.19-3.21-4.81-3.2-5,0-.33,5.47-3.09,10.35-6.24,14.7-3.58,4.93-7.75,9.47-11.68,14.11s-7.56,9.22-11.75,13.42c-3.81,3.81-8.17,7.15-13.43,8.62-11.11,3.11-23.66-1.14-32.85-7.48a44.25,44.25,0,0,1-6.2-5.15c-1.65-1.65-3.05-3.61-2.43-6s2.49-4.58,4.3-6.34c2.14-2.09,4.46-4,6.74-6a326.48,326.48,0,0,1,34.06-25.34c2.69-1.75.18-6.08-2.53-4.32Z"/><path class="cls-4" d="M250.24,712.35c3.95,8.48,13.5,13.2,22.62,12a2.5,2.5,0,0,0,1.74-3.07,2.56,2.56,0,0,0-3.07-1.75c.28,0-.28,0-.33,0l-.7,0c-.47,0-.95,0-1.42,0a11.7,11.7,0,0,1-2.42-.29,16.8,16.8,0,0,1-5-1.83,16.29,16.29,0,0,1-4.09-3.13,15.82,15.82,0,0,1-3.05-4.49,2.5,2.5,0,1,0-4.31,2.52Z"/><path class="cls-4" d="M714.88,378.09v58.23c0,3.22,5,3.22,5,0V378.09c0-3.22-5-3.23-5,0Z"/><path class="cls-4" d="M636,316.89c7.2,1.25,13.57,4.78,19.72,8.57,5.74,3.54,11.42,7.18,17,11,11,7.46,21.53,15.6,30.76,25.16a113.74,113.74,0,0,1,14,17.6c1.73,2.7,6.06.19,4.32-2.52-15.07-23.5-38.39-39.79-61.68-54.35-7.07-4.42-14.47-8.81-22.81-10.25a2.57,2.57,0,0,0-3.07,1.75,2.51,2.51,0,0,0,1.74,3.07Z"/><path class="cls-4" d="M490.25,357.12c3.59-11.52,12-20.94,21.7-27.83a116.12,116.12,0,0,1,17.57-10.05,187.56,187.56,0,0,1,19.32-8.08c7.27-2.5,15.06-4.26,22.76-3a2.57,2.57,0,0,0,3.07-1.75,2.51,2.51,0,0,0-1.74-3.07c-15-2.49-29.7,4.15-43.07,10.24-12.44,5.67-24.66,12.73-33.66,23.23a53.75,53.75,0,0,0-10.77,19c-1,3.08,3.86,4.4,4.82,1.33Z"/><path class="cls-4" d="M538.08,252.93a81.2,81.2,0,0,1-11.75-43.42c1.08-42.57,37.38-65.92,39.84-67.43,30.59-18.69,77-19.34,90.93,2,3.87,5.94,4.65,12.67,4.43,18.31,18.85-4,24.09,1.74,25.2,3.15,7.33,9.26-5.44,30-13.54,43.16a156.21,156.21,0,0,1-28.86,34.49c3.51-4.63,13.36-18.85,12.8-38.82a59.87,59.87,0,0,0-6.42-25.16c-12.1-10.63-23.35-12.11-27.83-12.39-14.93-1-26.44,6.76-38.83,15.06a112,112,0,0,0-21,18.17C545.9,219.47,540.2,241,538.08,252.93Z"/><path class="cls-4" d="M658.53,243c-.23.08-.25.09,0,0-.23,0-.28,0-.14,0h.22c-.26,0-.28,0-.06,0,.4.22-.27-.24.09.06.18.12.17.11,0,0l.11.11c.13.15.13.15,0,0,.06.1.12.19.17.29-.16-.28,0,0,0,.16s.07.32.1.49c-.07-.41,0,.07,0,.17a6.11,6.11,0,0,1,0,1.13c.06-.45,0,.08,0,.14l-.12.47c-.06.21-.13.41-.2.61-.12.38.13-.24-.06.15a8.05,8.05,0,0,1-.5.91c-.1.16-.21.32-.32.47.19-.26,0,0-.12.12a8.5,8.5,0,0,1-.74.73l-.19.15c.16-.13.15-.12,0,0l-.43.28-.44.24-.31.14q.24-.09.06,0a9.76,9.76,0,0,1-1,.32l-.5.1c.42-.07-.17,0-.25,0-.37,0-.73,0-1.1,0s.23.06-.17,0l-.66-.15a1.88,1.88,0,0,0-1,3.62,9.63,9.63,0,0,0,9.29-2.57c2.27-2.4,3.49-6.28,2.06-9.4a4.08,4.08,0,0,0-5.52-2,1.89,1.89,0,0,0-.67,2.56,1.93,1.93,0,0,0,2.57.68Z"/><path class="cls-4" d="M661.78,165.19c7.14-6,15.65-13,25.65-11.57,1.57.22,2.25-2.19.66-2.41C677,149.66,668,156.74,660,163.43c-1.23,1,.54,2.79,1.77,1.76Z"/><path class="cls-4" d="M659.78,134.74c7.63,9.38,4.84,22.44-1.74,31.49-.95,1.3,1.22,2.55,2.15,1.26a33.47,33.47,0,0,0,6.68-17.58A24.56,24.56,0,0,0,661.55,133c-1-1.25-2.78.52-1.77,1.76Z"/><path class="cls-4" d="M480.17,148a67.93,67.93,0,0,1,24.27-28.86c2.67-1.78.16-6.11-2.53-4.32a72.63,72.63,0,0,0-26.06,30.65,2.58,2.58,0,0,0,.9,3.42,2.51,2.51,0,0,0,3.42-.89Z"/><path class="cls-4" d="M455.57,127.76A105,105,0,0,1,486.5,99.1c2.75-1.67.24-6-2.52-4.32a111.12,111.12,0,0,0-32.73,30.45,2.5,2.5,0,1,0,4.32,2.53Z"/><path class="cls-4" d="M572.1,316.41a33.88,33.88,0,0,0,18,19.08,33.06,33.06,0,0,0,26.87-.36,32.5,32.5,0,0,0,12.18-9.48,2.59,2.59,0,0,0,0-3.54,2.53,2.53,0,0,0-3.54,0,29,29,0,0,1-20.29,11,28.48,28.48,0,0,1-28.42-18.07,2.57,2.57,0,0,0-3.07-1.75,2.54,2.54,0,0,0-1.75,3.08Z"/></svg>